<svg xmlns="http://www.w3.org/2000/svg" xml:space="preserve" width="512px" height="512px" version="1.1" style="shape-rendering:geometricPrecision; text-rendering:geometricPrecision; image-rendering:optimizeQuality; fill-rule:evenodd; clip-rule:evenodd"
viewBox="0 0 512 512"
 xmlns:xlink="http://www.w3.org/1999/xlink">
 <defs>
  <style type="text/css">
   <![CDATA[
    .fil1 {fill:#0B428A}
    .fil0 {fill:#0C4DA1}
    .fil2 {fill:#0A2952;fill-rule:nonzero}
    .fil3 {fill:#FFD000;fill-rule:nonzero}
   ]]>
  </style>
 </defs>
 <g id="Capa_x0020_1">
  <metadata id="CorelCorpID_0Corel-Layer"/>
  <g id="Asterisk">
   <path id="_4" class="fil0" d="M256 17c132,0 238,107 238,239 0,132 -106,239 -238,239 -132,0 -239,-107 -239,-239 0,-132 107,-239 239,-239z"/>
   <path id="_3" class="fil1" d="M426 88c43,43 69,103 69,168 0,132 -107,239 -239,239 -65,0 -125,-26 -168,-70l338 -337z"/>
   <path id="_2" class="fil2" d="M288 236c20,-10 40,-19 58,-28 19,-10 34,-17 45,-21 11,-5 20,-7 26,-7 11,0 21,4 29,11 8,8 12,17 12,28 0,6 -2,13 -6,20 -4,6 -8,11 -12,13 -41,16 -86,28 -135,35 9,8 20,19 33,32 13,14 20,21 20,22 5,7 12,15 20,25 9,9 15,17 18,23 3,5 5,12 5,20 0,10 -4,19 -11,26 -8,8 -18,12 -30,12 -12,0 -26,-10 -40,-28 -15,-19 -35,-52 -59,-100 -24,43 -40,72 -48,86 -9,14 -16,24 -24,31 -8,7 -16,11 -26,11 -12,0 -22,-4 -29,-12 -8,-8 -12,-17 -12,-26 0,-9 2,-15 5,-20 29,-39 59,-73 91,-102 -27,-4 -50,-9 -71,-14 -21,-5 -43,-13 -66,-22 -4,-2 -8,-7 -12,-13 -3,-7 -5,-13 -5,-19 0,-11 4,-20 12,-28 8,-7 17,-11 28,-11 7,0 17,2 28,7 11,5 26,11 43,20 18,8 38,18 60,29 -4,-20 -7,-43 -10,-68 -2,-26 -4,-44 -4,-53 0,-12 4,-22 11,-30 8,-9 18,-13 29,-13 12,0 21,4 29,13 7,8 11,19 11,33 0,4 -1,11 -2,22 -1,12 -3,25 -5,41 -2,16 -4,34 -6,55z"/>
   <path id="_1" class="fil3" d="M280 228c21,-9 40,-19 59,-28 19,-9 33,-16 45,-21 11,-4 19,-7 26,-7 11,0 21,4 29,12 8,7 12,16 12,27 0,7 -2,13 -6,20 -4,7 -8,11 -13,13 -41,16 -85,28 -134,35 9,8 19,19 32,33 13,13 20,21 21,22 5,6 11,14 20,24 8,10 14,18 17,23 4,6 5,12 5,20 0,10 -3,19 -11,27 -8,7 -17,11 -29,11 -12,0 -26,-9 -41,-28 -15,-18 -34,-52 -58,-100 -24,43 -40,72 -49,86 -8,14 -16,24 -23,31 -8,7 -17,11 -26,11 -12,0 -22,-4 -30,-12 -7,-8 -11,-17 -11,-26 0,-8 1,-15 5,-19 29,-40 59,-74 90,-103 -26,-4 -50,-9 -71,-14 -20,-5 -43,-12 -66,-22 -4,-2 -8,-6 -11,-13 -4,-7 -6,-13 -6,-19 0,-11 4,-20 13,-27 8,-8 17,-12 27,-12 8,0 17,3 29,7 11,5 26,12 43,20 18,9 38,19 60,29 -4,-20 -7,-42 -10,-68 -3,-26 -4,-44 -4,-53 0,-12 4,-22 11,-30 7,-8 17,-13 29,-13 11,0 21,5 28,13 8,8 11,19 11,33 0,4 0,12 -1,23 -1,11 -3,25 -5,41 -2,16 -4,34 -7,54z"/>
  </g>
 </g>
</svg>